<?xml version="1.0" encoding="UTF-8" standalone="no"?><!DOCTYPE svg PUBLIC "-//W3C//DTD SVG 1.1//EN" "http://www.w3.org/Graphics/SVG/1.1/DTD/svg11.dtd"><svg width="100%" height="100%" viewBox="0 0 300 300" version="1.1" xmlns="http://www.w3.org/2000/svg" xmlns:xlink="http://www.w3.org/1999/xlink" xml:space="preserve" xmlns:serif="http://www.serif.com/" style="fill-rule:evenodd;clip-rule:evenodd;stroke-linejoin:round;stroke-miterlimit:2;"><rect id="Artboard2" x="0" y="0" width="300" height="300" style="fill:none;"/><clipPath id="_clip1"><rect x="0" y="0" width="300" height="300"/></clipPath><g clip-path="url(#_clip1)"><path d="M73.55,253.056c-0.196,-1.435 0.257,-2.609 2.264,-2.609l149.017,-0c1.067,-0 2.087,0.439 2.821,1.213l39.566,41.765c1.068,1.127 1.362,2.781 0.749,4.207c-0.614,1.426 -2.017,2.35 -3.569,2.35l-227.634,0c-0.346,0.04 -0.561,0 -0.561,0c-2.145,0 -3.885,-1.739 -3.885,-3.885c0,-1.041 0.41,-1.986 1.077,-2.683l-0,-0.001l39.554,-41.753l0.601,1.396Zm-55.428,30.315c0,1.591 0.97,3.021 2.447,3.609c1.478,0.589 3.165,0.218 4.259,-0.937l41.088,-43.371c0.684,-0.722 1.065,-1.678 1.065,-2.672l-0,-179.982c-0,-0.994 -0.381,-1.951 -1.065,-2.672l-41.075,-43.358c-1.411,-1.489 -2.833,-1.227 -2.833,-1.227c-2.146,0 -3.886,1.74 -3.886,3.886l0,266.724Zm263.755,-266.742c0,-1.591 -0.969,-3.021 -2.447,-3.609c-1.477,-0.589 -3.164,-0.218 -4.258,0.937l-41.088,43.371c-0.684,0.722 -1.065,1.678 -1.065,2.672l-0,179.982c-0,0.994 0.381,1.951 1.065,2.672l41.075,43.359c1.411,1.488 2.833,1.226 2.833,1.226c2.146,-0 3.885,-1.74 3.885,-3.885l0,-266.725Zm-62.329,221.662c2.146,-0 3.885,-1.74 3.885,-3.886l0,-168.828c0,-2.146 -1.739,-3.885 -3.885,-3.885l-138.495,-0c-2.146,-0 -3.885,1.739 -3.885,3.885l-0,168.828c-0,2.146 1.739,3.886 3.885,3.886l138.495,-0Zm-69.247,-102.432l-0,-0c-4.289,-0 -7.771,3.481 -7.771,7.77l0,40.587l-11.285,-11.285c-3.033,-3.033 -7.957,-3.033 -10.99,-0c-3.032,3.032 -3.032,7.956 0,10.989l24.512,24.512c0.382,0.387 0.807,0.736 1.268,1.039c0.534,0.351 1.104,0.631 1.698,0.839l0.234,0.078c0.747,0.235 1.514,0.353 2.277,0.358l0.113,0c0.763,-0.005 1.53,-0.123 2.277,-0.358l0.234,-0.078c0.594,-0.208 1.164,-0.488 1.698,-0.839c0.461,-0.303 0.886,-0.652 1.268,-1.039l24.512,-24.512c3.032,-3.033 3.032,-7.957 -0,-10.989c-3.033,-3.033 -7.957,-3.033 -10.989,-0l-11.286,11.285l-0,-40.587c-0,-4.289 -3.482,-7.77 -7.77,-7.77Zm116.903,-129.288c0.669,-0.697 1.079,-1.644 1.079,-2.686c-0,-2.146 -1.74,-3.885 -3.885,-3.885l-228.195,-0c-1.552,-0 -2.955,0.924 -3.569,2.35c-0.613,1.426 -0.319,3.08 0.749,4.207l39.566,41.765c0.734,0.775 1.754,1.213 2.821,1.213c-0,0 148.97,-0.001 148.97,-0.001c1.099,0.026 2.156,-0.414 2.912,-1.212l39.555,-41.752l-0.003,0.001Z" style="fill:#fff;"/></g></svg>