<?xml version="1.0" encoding="UTF-8" standalone="no"?><!DOCTYPE svg PUBLIC "-//W3C//DTD SVG 1.1//EN" "http://www.w3.org/Graphics/SVG/1.1/DTD/svg11.dtd"><svg width="100%" height="100%" viewBox="0 0 300 300" version="1.1" xmlns="http://www.w3.org/2000/svg" xmlns:xlink="http://www.w3.org/1999/xlink" xml:space="preserve" xmlns:serif="http://www.serif.com/" style="fill-rule:evenodd;clip-rule:evenodd;stroke-linejoin:round;stroke-miterlimit:2;"><rect id="Artboard1" x="0" y="0" width="300" height="300" style="fill:none;"/><clipPath id="_clip1"><rect id="Artboard11" serif:id="Artboard1" x="0" y="0" width="300" height="300"/></clipPath><g clip-path="url(#_clip1)"><path d="M46.889,73.623c1.435,-0.196 2.609,0.256 2.611,2.263l0.107,149.017c0,1.067 -0.438,2.087 -1.212,2.822l-41.736,39.596c-1.126,1.068 -2.78,1.364 -4.207,0.751c-1.426,-0.612 -2.351,-2.015 -2.352,-3.567l-0.164,-227.634c-0.04,-0.345 0,-0.56 0,-0.56c-0.001,-2.146 1.737,-3.887 3.883,-3.888c1.041,-0.001 1.986,0.408 2.684,1.075l0.001,-0.001l41.781,39.525l-1.396,0.601Zm-30.355,-55.405c-1.59,0.001 -3.019,0.972 -3.607,2.45c-0.588,1.478 -0.215,3.165 0.94,4.258l43.401,41.057c0.722,0.683 1.678,1.063 2.672,1.062l179.983,-0.128c0.994,-0.001 1.95,-0.383 2.671,-1.067l43.329,-41.107c1.488,-1.411 1.224,-2.834 1.224,-2.834c-0.002,-2.145 -1.742,-3.884 -3.888,-3.882l-266.725,0.191Zm266.932,263.564c1.59,-0.001 3.019,-0.972 3.607,-2.45c0.588,-1.478 0.215,-3.165 -0.94,-4.258l-43.401,-41.057c-0.722,-0.683 -1.679,-1.063 -2.673,-1.062l-179.982,0.128c-0.994,0.001 -1.95,0.383 -2.671,1.067l-43.329,41.107c-1.488,1.411 -1.224,2.834 -1.224,2.834c0.001,2.145 1.742,3.884 3.888,3.882l266.725,-0.191Zm-221.707,-62.171c0.002,2.146 1.742,3.884 3.888,3.883l168.829,-0.121c2.145,-0.002 3.884,-1.742 3.882,-3.888l-0.099,-138.495c-0.002,-2.146 -1.742,-3.884 -3.888,-3.883l-168.829,0.121c-2.145,0.002 -3.884,1.743 -3.882,3.888l0.099,138.495Zm88.257,-47.407l-0,-0c4.288,-0.003 7.768,-3.488 7.765,-7.776l-0.029,-40.588l11.293,11.278c3.035,3.03 7.959,3.027 10.989,-0.008c3.031,-3.035 3.027,-7.959 -0.008,-10.989l-24.529,-24.494c-0.382,-0.388 -0.807,-0.736 -1.268,-1.039c-0.534,-0.35 -1.105,-0.63 -1.699,-0.837l-0.234,-0.078c-0.747,-0.235 -1.514,-0.352 -2.277,-0.357l-0.113,0c-0.763,0.006 -1.531,0.124 -2.277,0.36l-0.234,0.078c-0.594,0.208 -1.164,0.489 -1.697,0.84c-0.461,0.303 -0.886,0.653 -1.267,1.04l-24.495,24.53c-3.03,3.035 -3.026,7.959 0.008,10.989c3.035,3.03 7.959,3.027 10.989,-0.008l11.278,-11.293l0.029,40.587c0.003,4.288 3.487,7.768 7.776,7.765Zm143.497,94.897c0.698,0.668 1.644,1.078 2.686,1.077c2.146,-0.001 3.884,-1.742 3.883,-3.888l-0.163,-228.194c-0.002,-1.552 -0.927,-2.955 -2.353,-3.567c-1.427,-0.613 -3.081,-0.317 -4.207,0.751l-41.736,39.597c-0.774,0.734 -1.212,1.754 -1.212,2.821c0,-0 0.108,148.97 0.108,148.971c-0.025,1.098 0.416,2.155 1.214,2.91l41.781,39.525l-0.001,-0.003Z" style="fill:#fff;"/></g></svg>